<svg xmlns="http://www.w3.org/2000/svg" viewBox="0 0 512 512" id="renewable-energy"><polygon fill="#b3b3b3" points="427.79 280 395.79 280 403.79 120 419.79 120 427.79 280"></polygon><path fill="#e6e6e6" d="M411.79 112l-7.1-21.285a76.874 76.874 0 011.553-52.861L411.79 24l5.541 13.854a76.874 76.874 0 011.554 52.861zM488 156l-14.886-16.787a76.876 76.876 0 00-46.556-25.085L411.79 112l9.227 11.726a76.877 76.877 0 0045 27.776zM335.58 156l14.885-16.787a76.878 76.878 0 0146.556-25.085L411.79 112l-9.227 11.726a76.876 76.876 0 01-45 27.776z"></path><rect width="16" height="52" x="248" y="209" fill="#e6e6e6"></rect><path fill="#ccc" d="M376 68H344a4 4 0 010-8h32a4 4 0 000-8 4 4 0 010-8 12 12 0 010 24zM352 100H320a4 4 0 010-8h32a4 4 0 000-8 4 4 0 010-8 12 12 0 010 24z"></path><circle cx="256" cy="64" r="24" fill="#faf6ac"></circle><path fill="#efb696" d="M256 28a4 4 0 01-4-4V16a4 4 0 018 0v8A4 4 0 01256 28zM288 36a4 4 0 01-2.828-6.828l8-8a4 4 0 015.656 5.656l-8 8A3.987 3.987 0 01288 36zM304 68h-8a4 4 0 010-8h8a4 4 0 010 8zM296 108a3.987 3.987 0 01-2.828-1.172l-8-8a4 4 0 015.656-5.656l8 8A4 4 0 01296 108zM224 36a3.987 3.987 0 01-2.828-1.172l-8-8a4 4 0 015.656-5.656l8 8A4 4 0 01224 36zM216 68h-8a4 4 0 010-8h8a4 4 0 010 8zM216 108a4 4 0 01-2.828-6.828l8-8a4 4 0 015.656 5.656l-8 8A3.987 3.987 0 01216 108zM256 116a4 4 0 01-4-4v-8a4 4 0 018 0v8A4 4 0 01256 116z"></path><path fill="#95c3e9" d="M96,248l-8.29,9H32V223.038a50.221,50.221,0,0,1,27.761-44.919h0A31.4,31.4,0,0,1,96,184h0a31.012,31.012,0,0,0-26.876,11.526h0a22.813,22.813,0,0,0,2.8,31.426Z"></path><path fill="#95c3e9" d="M144,273.2H80V248.234a50.221,50.221,0,0,1,27.761-44.919h0A31.4,31.4,0,0,1,144,209.2h0a31.012,31.012,0,0,0-26.876,11.526h0a22.813,22.813,0,0,0,2.8,31.426Z"></path><path fill="#95c3e9" d="M184,297.2H120V272.234a50.221,50.221,0,0,1,27.761-44.919h0A31.4,31.4,0,0,1,184,233.2h0a31.012,31.012,0,0,0-26.876,11.526h0a22.813,22.813,0,0,0,2.8,31.426Z"></path><path fill="#95c3e9" d="M488,256q0,9.18-.71,18.18a230.894,230.894,0,0,1-52,129.06q-7.2,8.775-15.24,16.81a231.266,231.266,0,0,1-145.27,67.2h-.01q-9.285.75-18.77.75A231.792,231.792,0,0,1,24,256a7.989,7.989,0,0,1,8-8H480A8,8,0,0,1,488,256Z"></path><path fill="#9ad5c2" d="M211.19 365.74a43.626 43.626 0 01-31.1 41.83l-10.19 3.06a15.715 15.715 0 00-9.54 22.09 15.724 15.724 0 01-8.22 21.63l-9.82 3.93A232.209 232.209 0 0127.22 294.71l5.77-2.3a41.173 41.173 0 0149.54 15.38 41.141 41.141 0 0034.23 18.33c1.14 0 2.29-.04 3.44-.14l43.73-3.64a43.66 43.66 0 0147.26 43.4zM488 256q0 9.18-.71 18.18l-13.66 3.41a21.555 21.555 0 00-14.07 11.29 21.564 21.564 0 01-32.24 7.61 24.1 24.1 0 00-24.25-2.74l-20.47 9.09A55.9 55.9 0 01304 251.76V248H480A8 8 0 01488 256zM435.29 403.24q-7.2 8.775-15.24 16.81a231.266 231.266 0 01-145.27 67.2h-.01A38.115 38.115 0 01256 454.37V445.8a62.073 62.073 0 0113.62-38.82 33.669 33.669 0 0143.62-7.84 33.683 33.683 0 0030.59 2.08 108.846 108.846 0 0181.1-1.87z"></path><circle cx="256" cy="368" r="64" fill="#ccc"></circle><polygon fill="#faf6ac" points="232 372 248 372 240 412 280 364 264 364 272 324 232 372"></polygon><circle cx="411.79" cy="112" r="16" fill="#ccc"></circle><path fill="#b3b3b3" d="M309.38,216H202.62a7.9,7.9,0,0,1-7.57-10.17l19.26-64.2a7.9,7.9,0,0,1,7.57-5.63h68.24a7.9,7.9,0,0,1,7.57,5.63l19.26,64.2A7.9,7.9,0,0,1,309.38,216Z"></path><polygon fill="#ccc" points="243.88 136 239.54 156 237.81 164 234.34 180 232.6 188 226.53 216 218.34 216 224.41 188 226.15 180 229.62 164 231.35 156 235.69 136 243.88 136"></polygon><polygon fill="#ccc" points="293.66 216 285.47 216 279.4 188 277.66 180 274.19 164 272.46 156 268.12 136 276.31 136 280.65 156 282.38 164 285.85 180 287.59 188 293.66 216"></polygon><rect width="8" height="80" x="252" y="136" fill="#ccc"></rect><polygon fill="#ccc" points="304.4 164 207.6 164 210 156 302 156 304.4 164"></polygon><polygon fill="#ccc" points="311.6 188 200.4 188 202.8 180 309.2 180 311.6 188"></polygon></svg>